<svg width="136" height="136" viewBox="0 0 136 136" fill="none" xmlns="http://www.w3.org/2000/svg">
<path d="M86.4015 91.2902L95.9215 81.7702C97.2037 80.5039 98.826 79.637 100.591 79.2749C102.357 78.9128 104.189 79.0709 105.866 79.7302L117.469 84.3627C119.164 85.0507 120.617 86.225 121.646 87.7376C122.674 89.2502 123.232 91.0335 123.249 92.8627V114.113C123.239 115.357 122.978 116.586 122.48 117.727C121.982 118.868 121.259 119.896 120.354 120.749C119.449 121.603 118.38 122.265 117.212 122.694C116.044 123.124 114.802 123.313 113.559 123.25C32.2565 118.193 15.8515 49.3427 12.749 22.9927C12.605 21.6987 12.7365 20.3889 13.1351 19.1494C13.5336 17.91 14.1901 16.7689 15.0613 15.8014C15.9325 14.8339 16.9986 14.0617 18.1897 13.5358C19.3807 13.0099 20.6695 12.7422 21.9715 12.7502H42.499C44.3308 12.7556 46.119 13.3089 47.6338 14.3389C49.1486 15.369 50.3205 16.8286 50.999 18.5302L55.6315 30.1327C56.3126 31.8032 56.4863 33.6374 56.1311 35.4061C55.7758 37.1748 54.9073 38.7997 53.634 40.0777L44.114 49.5977C44.114 49.5977 49.5965 86.7002 86.4015 91.2902Z" fill="#DE4878"/>
</svg>
