<svg width="100" height="100" viewBox="0 0 100 100" fill="none" xmlns="http://www.w3.org/2000/svg">
<path d="M83.3333 83.3333C68.9583 83.3333 50 91.6667 50 91.6667V45.8333C50 45.8333 68.75 37.5 87.5 37.5L83.3333 83.3333Z" fill="#5C6BC0"/>
<path d="M16.6667 83.3333C31.0417 83.3333 50 91.6667 50 91.6667V45.8333C50 45.8333 31.25 37.5 12.5 37.5L16.6667 83.3333Z" fill="#7986CB"/>
<path d="M50.0007 41.6668C59.2054 41.6668 66.6673 34.2049 66.6673 25.0002C66.6673 15.7954 59.2054 8.3335 50.0007 8.3335C40.7959 8.3335 33.334 15.7954 33.334 25.0002C33.334 34.2049 40.7959 41.6668 50.0007 41.6668Z" fill="white"/>
<path d="M85.417 66.667H87.5003C88.7503 66.667 89.5836 65.8337 89.5836 64.5837V56.2503C89.5836 55.0003 88.7503 54.167 87.5003 54.167H85.417C81.8753 54.167 79.167 56.8753 79.167 60.417C79.167 63.9587 81.8753 66.667 85.417 66.667Z" fill="white"/>
<path d="M14.5837 54.167H12.5003C11.2503 54.167 10.417 55.0003 10.417 56.2503V64.5837C10.417 65.8337 11.2503 66.667 12.5003 66.667H14.5837C18.1253 66.667 20.8337 63.9587 20.8337 60.417C20.8337 56.8753 18.1253 54.167 14.5837 54.167Z" fill="white"/>
</svg>
