<svg width="232" height="232" viewBox="0 0 232 232" fill="none" xmlns="http://www.w3.org/2000/svg">
<path d="M116 14.5L138.717 31.9L166.75 28.0333L177.383 54.6167L203.967 65.25L200.1 93.2833L217.5 116L200.1 138.717L203.967 166.75L177.383 177.383L166.75 203.967L138.717 200.1L116 217.5L93.2833 200.1L65.25 203.967L54.6167 177.383L28.0333 166.75L31.9 138.717L14.5 116L31.9 93.2833L28.0333 65.25L54.6167 54.6167L65.25 28.0333L93.2833 31.9L116 14.5Z" fill="#8BC34A"/>
<path d="M167.232 70.5669L101.498 136.3L74.4318 109.234L60.8984 122.767L101.498 163.367L180.765 84.1002L167.232 70.5669Z" fill="#CCFF90"/>
</svg>
