<svg width="387" height="387" viewBox="0 0 387 387" fill="none" xmlns="http://www.w3.org/2000/svg">
<path d="M225.75 112.875C248.014 112.875 266.062 94.8265 266.062 72.5625C266.062 50.2985 248.014 32.25 225.75 32.25C203.486 32.25 185.438 50.2985 185.438 72.5625C185.438 94.8265 203.486 112.875 225.75 112.875Z" fill="#FF9800"/>
<path d="M233.814 220.106L159.639 187.049C151.576 183.018 147.545 195.112 143.514 203.174C139.483 211.237 110.458 261.224 112.876 270.093C115.295 277.349 121.745 281.381 128.195 281.381C129.808 281.381 131.42 281.381 133.033 280.574L232.201 249.937C238.651 248.324 243.489 241.874 243.489 235.424C243.489 228.974 239.458 222.524 233.814 220.106Z" fill="#00796B"/>
<path d="M216.075 122.549L198.338 114.486C187.856 109.649 174.956 114.486 170.119 124.967L74.1752 331.367C70.144 339.43 74.1752 349.105 82.2377 353.136C84.6565 353.942 87.0752 354.749 89.494 354.749C95.944 354.749 101.588 351.524 104.006 345.88C104.006 345.88 181.406 238.649 187.856 225.749C194.306 212.849 227.363 150.767 227.363 150.767C231.394 140.286 227.363 127.386 216.075 122.549Z" fill="#009688"/>
<path d="M326.532 126.582C320.889 120.132 310.407 118.52 303.957 124.163L263.645 158.026L212.045 129.807C203.176 124.97 191.082 126.582 185.439 137.063C178.989 147.545 182.214 160.445 191.889 164.476L258.807 191.888C261.226 192.695 263.645 193.501 266.064 193.501C270.095 193.501 273.32 191.888 276.545 189.47L324.92 149.157C331.37 143.513 332.176 133.838 326.532 126.582Z" fill="#FF9800"/>
<path d="M94.3313 186.244L121.744 145.125L158.831 149.963L170.925 124.969C174.15 117.713 180.6 113.681 187.856 112.875H113.681C108.038 112.875 103.2 115.294 99.975 120.131L67.725 168.506C62.8875 175.763 64.5 186.244 72.5625 191.081C74.175 192.694 77.4 193.5 80.625 193.5C85.4625 193.5 91.1063 191.081 94.3313 186.244Z" fill="#FF9800"/>
</svg>
