<svg width="168" height="168" viewBox="0 0 168 168" fill="none" xmlns="http://www.w3.org/2000/svg">
<path d="M154 60.256V117.25C154 123.061 151.777 128.652 147.786 132.876C143.795 137.099 138.34 139.636 132.538 139.965L131.25 140H36.75C30.939 140 25.3482 137.777 21.1244 133.786C16.9006 129.795 14.364 124.34 14.035 118.538L14 117.25V60.256L81.564 95.648C82.3156 96.0417 83.1515 96.2474 84 96.2474C84.8485 96.2474 85.6844 96.0417 86.436 95.648L154 60.256ZM36.75 28H131.25C136.889 27.9993 142.327 30.093 146.51 33.8749C150.693 37.6568 153.322 42.8574 153.888 48.468L84 85.078L14.112 48.468C14.6547 43.0802 17.1013 38.0626 21.0122 34.3172C24.9232 30.5719 30.0418 28.3443 35.448 28.035L36.75 28H131.25H36.75Z" fill="#51BEF6"/>
</svg>
