<svg width="1920" height="364" viewBox="0 0 1920 364" fill="none" xmlns="http://www.w3.org/2000/svg">
<path d="M1926.82 4.22003C1927.92 4.10846 1928.72 3.12718 1928.6 2.02825C1928.49 0.92933 1927.51 0.12892 1926.41 0.240487L1926.82 4.22003ZM1419.52 99.1646L1420.33 100.996L1419.52 99.1646ZM1700.58 25.177L1700.38 23.1872L1700.58 25.177ZM945.802 173.034L945.641 175.027L945.802 173.034ZM580.209 282.687L580.287 284.686L580.209 282.687ZM68.3289 329.779L69.1108 331.62L68.3289 329.779ZM405.225 281.475L404.991 283.462L405.225 281.475ZM1051.87 181.57L1052.03 179.577L1051.87 181.57ZM1343.59 132.496L1344.4 134.327L1343.59 132.496ZM411.994 282.27L412.228 280.284L411.994 282.27ZM501.775 285.759L501.696 283.761L501.775 285.759ZM-6.0015 363.524L-1.30699 361.53L-2.87076 357.848L-7.56528 359.842L-6.0015 363.524ZM8.08205 357.542L17.4711 353.554L15.9073 349.872L6.51827 353.86L8.08205 357.542ZM26.8601 349.566L36.2492 345.578L34.6854 341.896L25.2963 345.884L26.8601 349.566ZM45.6382 341.59L55.0272 337.602L53.4635 333.921L44.0744 337.908L45.6382 341.59ZM64.4163 333.614L69.1108 331.62L67.547 327.939L62.8525 329.933L64.4163 333.614ZM69.1108 331.62C70.6598 330.962 72.211 330.31 73.7642 329.665L72.2286 325.971C70.6659 326.621 69.1054 327.277 67.547 327.939L69.1108 331.62ZM83.1124 325.861C86.2395 324.617 89.3746 323.396 92.5175 322.201L91.0952 318.462C87.9333 319.665 84.7792 320.893 81.6332 322.145L83.1124 325.861ZM101.977 318.684C105.141 317.536 108.311 316.412 111.49 315.312L110.182 311.532C106.985 312.638 103.795 313.769 100.612 314.924L101.977 318.684ZM121.052 312.086C124.249 311.034 127.453 310.008 130.663 309.006L129.471 305.187C126.241 306.195 123.018 307.228 119.802 308.286L121.052 312.086ZM140.319 306.072C143.547 305.119 146.78 304.19 150.02 303.286L148.945 299.434C145.686 300.343 142.433 301.277 139.186 302.236L140.319 306.072ZM159.762 300.649C163.016 299.794 166.276 298.965 169.542 298.16L168.586 294.276C165.3 295.086 162.02 295.92 158.746 296.78L159.762 300.649ZM179.36 295.821C182.639 295.066 185.923 294.336 189.212 293.632L188.374 289.721C185.065 290.429 181.761 291.164 178.463 291.923L179.36 295.821ZM199.097 291.593C202.397 290.939 205.702 290.309 209.011 289.705L208.293 285.77C204.963 286.378 201.639 287.011 198.318 287.67L199.097 291.593ZM218.953 287.969C222.271 287.415 225.594 286.887 228.92 286.384L228.322 282.429C224.976 282.935 221.633 283.467 218.295 284.024L218.953 287.969ZM238.91 284.952C242.244 284.5 245.581 284.073 248.921 283.672L248.444 279.701C245.084 280.104 241.726 280.534 238.373 280.988L238.91 284.952ZM258.95 282.545C262.296 282.195 265.644 281.87 268.995 281.571L268.64 277.587C265.268 277.888 261.9 278.215 258.534 278.567L258.95 282.545ZM279.054 280.75C282.409 280.502 285.766 280.28 289.125 280.083L288.891 276.09C285.512 276.288 282.134 276.512 278.76 276.761L279.054 280.75ZM299.204 279.569C302.565 279.424 305.927 279.304 309.29 279.21L309.178 275.211C305.794 275.306 302.412 275.427 299.031 275.573L299.204 279.569ZM319.381 279.004C322.744 278.961 326.108 278.943 329.473 278.951L329.483 274.951C326.097 274.943 322.713 274.961 319.33 275.004L319.381 279.004ZM339.565 279.053C342.927 279.113 346.29 279.198 349.654 279.309L349.786 275.311C346.402 275.2 343.018 275.114 339.636 275.054L339.565 279.053ZM359.738 279.719C363.097 279.881 366.456 280.068 369.814 280.282L370.068 276.29C366.689 276.075 363.31 275.886 359.93 275.723L359.738 279.719ZM379.881 280.999C383.233 281.263 386.585 281.553 389.936 281.869L390.311 277.887C386.94 277.569 383.568 277.277 380.195 277.011L379.881 280.999ZM399.976 282.892C401.648 283.076 403.32 283.266 404.991 283.462L405.458 279.489C403.776 279.292 402.094 279.101 400.412 278.916L399.976 282.892ZM404.991 283.462L406.684 283.66L407.15 279.688L405.458 279.489L404.991 283.462ZM410.069 284.058L411.761 284.256L412.228 280.284L410.535 280.085L410.069 284.058ZM411.761 284.256C413.629 284.476 415.497 284.686 417.367 284.887L417.794 280.91C415.938 280.71 414.082 280.501 412.228 280.284L411.761 284.256ZM428.595 285.983C432.341 286.312 436.09 286.604 439.842 286.86L440.114 282.87C436.388 282.615 432.665 282.325 428.944 281.998L428.595 285.983ZM451.104 287.518C454.86 287.701 458.617 287.847 462.376 287.956L462.493 283.958C458.76 283.849 455.028 283.704 451.298 283.523L451.104 287.518ZM473.655 288.174C477.415 288.211 481.176 288.21 484.937 288.173L484.897 284.173C481.162 284.21 477.428 284.211 473.694 284.175L473.655 288.174ZM496.216 287.951C498.095 287.896 499.974 287.831 501.853 287.758L501.696 283.761C499.83 283.834 497.964 283.898 496.098 283.953L496.216 287.951ZM501.853 287.758L506.755 287.566L506.599 283.569L501.696 283.761L501.853 287.758ZM516.559 287.182L526.364 286.798L526.207 282.801L516.403 283.185L516.559 287.182ZM536.168 286.414L545.972 286.03L545.816 282.033L536.011 282.417L536.168 286.414ZM555.777 285.646L565.581 285.262L565.424 281.265L555.62 281.649L555.777 285.646ZM575.385 284.878L580.287 284.686L580.131 280.689L575.228 280.881L575.385 284.878ZM580.287 284.686C581.925 284.622 583.561 284.545 585.196 284.455L584.977 280.461C583.363 280.55 581.747 280.626 580.131 280.689L580.287 284.686ZM595 283.76C598.267 283.476 601.526 283.141 604.777 282.755L604.305 278.783C601.096 279.164 597.879 279.495 594.654 279.775L595 283.76ZM614.516 281.441C617.758 280.951 620.989 280.41 624.209 279.819L623.487 275.885C620.308 276.469 617.118 277.002 613.919 277.486L614.516 281.441ZM633.847 277.892C637.05 277.198 640.241 276.454 643.418 275.66L642.448 271.779C639.312 272.563 636.162 273.298 633 273.982L633.847 277.892ZM652.914 273.127C656.066 272.232 659.203 271.288 662.325 270.294L661.111 266.483C658.03 267.464 654.933 268.396 651.822 269.279L652.914 273.127ZM671.641 267.165C674.73 266.073 677.801 264.933 680.854 263.743L679.402 260.016C676.389 261.19 673.357 262.316 670.308 263.394L671.641 267.165ZM689.954 260.031C692.967 258.747 695.96 257.414 698.933 256.033L697.248 252.405C694.313 253.768 691.359 255.084 688.385 256.352L689.954 260.031ZM707.78 251.753C710.704 250.281 713.607 248.761 716.487 247.195L714.576 243.681C711.733 245.227 708.868 246.727 705.981 248.18L707.78 251.753ZM725.045 242.364C727.87 240.71 730.671 239.01 733.446 237.264L731.317 233.878C728.577 235.601 725.812 237.279 723.024 238.912L725.045 242.364ZM741.682 231.901C743.04 230.986 744.391 230.06 745.736 229.122L743.448 225.841C742.121 226.766 740.787 227.681 739.447 228.584L741.682 231.901ZM745.736 229.122C747.05 228.206 748.37 227.301 749.697 226.406L747.461 223.09C746.117 223.996 744.779 224.913 743.448 225.841L745.736 229.122ZM757.741 221.164C760.453 219.457 763.188 217.794 765.946 216.176L763.922 212.726C761.128 214.365 758.357 216.05 755.61 217.779L757.741 221.164ZM774.302 211.448C777.115 209.914 779.949 208.426 782.804 206.984L781 203.414C778.108 204.875 775.237 206.383 772.387 207.936L774.302 211.448ZM791.44 202.788C794.342 201.434 797.264 200.126 800.204 198.865L798.627 195.189C795.649 196.467 792.689 197.791 789.749 199.163L791.44 202.788ZM809.086 195.218C812.067 194.049 815.065 192.927 818.079 191.852L816.735 188.084C813.682 189.173 810.645 190.31 807.625 191.495L809.086 195.218ZM827.172 188.768C830.219 187.788 833.282 186.856 836.358 185.971L835.252 182.127C832.136 183.023 829.034 183.967 825.947 184.961L827.172 188.768ZM845.626 183.463C848.728 182.676 851.843 181.937 854.969 181.247L854.106 177.341C850.939 178.04 847.784 178.788 844.642 179.586L845.626 183.463ZM864.376 179.324C867.52 178.732 870.675 178.189 873.839 177.696L873.223 173.744C870.018 174.244 866.822 174.793 863.636 175.393L864.376 179.324ZM883.348 176.366C886.523 175.973 889.705 175.629 892.895 175.334L892.527 171.351C889.296 171.649 886.072 171.998 882.856 172.396L883.348 176.366ZM902.468 174.602C905.66 174.408 908.858 174.264 912.061 174.17L911.943 170.172C908.699 170.267 905.46 170.413 902.225 170.61L902.468 174.602ZM921.661 174.039C924.858 174.046 928.059 174.102 931.262 174.209L931.395 170.211C928.15 170.103 924.908 170.046 921.669 170.039L921.661 174.039ZM940.852 174.679C942.448 174.783 944.045 174.899 945.641 175.027L945.962 171.04C944.345 170.91 942.727 170.792 941.11 170.688L940.852 174.679ZM945.641 175.027L950.945 175.454L951.266 171.467L945.962 171.04L945.641 175.027ZM961.552 176.308L972.158 177.161L972.479 173.174L961.873 172.321L961.552 176.308ZM982.765 178.015L993.372 178.869L993.693 174.882L983.086 174.028L982.765 178.015ZM1003.98 179.722L1014.59 180.576L1014.91 176.589L1004.3 175.735L1003.98 179.722ZM1025.19 181.43L1035.8 182.284L1036.12 178.296L1025.51 177.443L1025.19 181.43ZM1046.41 183.137L1051.71 183.564L1052.03 179.577L1046.73 179.15L1046.41 183.137ZM1051.71 183.564C1053.37 183.698 1055.03 183.825 1056.69 183.945L1056.98 179.955C1055.33 179.836 1053.68 179.71 1052.03 179.577L1051.71 183.564ZM1066.67 184.582C1070 184.767 1073.32 184.925 1076.65 185.056L1076.81 181.059C1073.5 180.929 1070.2 180.772 1066.89 180.588L1066.67 184.582ZM1086.64 185.365C1089.97 185.44 1093.3 185.488 1096.63 185.509L1096.66 181.509C1093.35 181.489 1090.04 181.441 1086.73 181.366L1086.64 185.365ZM1106.63 185.489C1109.96 185.455 1113.29 185.393 1116.62 185.304L1116.51 181.306C1113.21 181.394 1109.9 181.455 1106.59 181.489L1106.63 185.489ZM1126.61 184.955C1129.94 184.811 1133.26 184.64 1136.59 184.442L1136.35 180.449C1133.05 180.646 1129.74 180.816 1126.44 180.959L1126.61 184.955ZM1146.56 183.764C1149.88 183.51 1153.2 183.23 1156.52 182.922L1156.15 178.939C1152.86 179.245 1149.56 179.524 1146.26 179.775L1146.56 183.764ZM1166.46 181.916C1169.78 181.553 1173.08 181.164 1176.39 180.747L1175.89 176.778C1172.61 177.192 1169.32 177.579 1166.03 177.94L1166.46 181.916ZM1186.29 179.414C1189.59 178.943 1192.89 178.444 1196.18 177.918L1195.55 173.969C1192.28 174.491 1189.01 174.986 1185.73 175.454L1186.29 179.414ZM1206.03 176.26C1209.31 175.681 1212.59 175.074 1215.86 174.44L1215.1 170.513C1211.85 171.143 1208.6 171.746 1205.34 172.321L1206.03 176.26ZM1225.66 172.459C1228.92 171.771 1232.17 171.057 1235.42 170.316L1234.53 166.416C1231.3 167.153 1228.07 167.862 1224.83 168.545L1225.66 172.459ZM1245.14 168.013C1248.38 167.219 1251.61 166.398 1254.83 165.55L1253.81 161.682C1250.61 162.524 1247.4 163.34 1244.19 164.129L1245.14 168.013ZM1264.47 162.928C1267.68 162.028 1270.88 161.101 1274.07 160.148L1272.93 156.315C1269.76 157.262 1266.58 158.183 1263.39 159.077L1264.47 162.928ZM1283.63 157.21C1286.8 156.205 1289.97 155.173 1293.13 154.115L1291.86 150.322C1288.72 151.373 1285.57 152.398 1282.42 153.396L1283.63 157.21ZM1302.58 150.864C1305.72 149.755 1308.85 148.619 1311.98 147.458L1310.58 143.709C1307.48 144.862 1304.37 145.99 1301.25 147.092L1302.58 150.864ZM1321.31 143.897C1324.42 142.685 1327.51 141.447 1330.59 140.184L1329.08 136.482C1326.01 137.738 1322.94 138.968 1319.86 140.172L1321.31 143.897ZM1339.81 136.318C1341.34 135.661 1342.87 134.997 1344.4 134.327L1342.79 130.665C1341.27 131.33 1339.75 131.989 1338.23 132.642L1339.81 136.318ZM1344.4 134.327L1349.14 132.244L1347.53 128.582L1342.79 130.665L1344.4 134.327ZM1358.63 128.078L1368.12 123.911L1366.52 120.249L1357.02 124.415L1358.63 128.078ZM1377.62 119.745L1387.11 115.578L1385.5 111.916L1376.01 116.082L1377.62 119.745ZM1396.6 111.412L1406.09 107.246L1404.48 103.583L1394.99 107.749L1396.6 111.412ZM1415.58 103.079L1420.33 100.996L1418.72 97.3333L1413.97 99.4165L1415.58 103.079ZM1420.33 100.996C1421.81 100.346 1423.29 99.6991 1424.78 99.0566L1423.19 95.3856C1421.7 96.0309 1420.21 96.6801 1418.72 97.3333L1420.33 100.996ZM1433.7 95.2479C1436.69 93.9937 1439.68 92.7552 1442.67 91.5325L1441.16 87.8292C1438.15 89.0572 1435.15 90.301 1432.15 91.5606L1433.7 95.2479ZM1451.68 87.9106C1454.69 86.7188 1457.7 85.5428 1460.72 84.3828L1459.29 80.6488C1456.25 81.8139 1453.23 82.9949 1450.2 84.1918L1451.68 87.9106ZM1469.8 80.9493C1472.83 79.8204 1475.87 78.7075 1478.91 77.6105L1477.56 73.8475C1474.5 74.9492 1471.45 76.0669 1468.4 77.2006L1469.8 80.9493ZM1488.06 74.3669C1491.12 73.3015 1494.18 72.252 1497.24 71.2187L1495.97 67.4282C1492.89 68.466 1489.81 69.5199 1486.74 70.5899L1488.06 74.3669ZM1506.46 68.1663C1509.53 67.1647 1512.62 66.1793 1515.7 65.21L1514.5 61.3938C1511.4 62.3672 1508.31 63.3569 1505.22 64.3627L1506.46 68.1663ZM1524.98 62.3502C1528.07 61.413 1531.18 60.492 1534.28 59.5872L1533.16 55.7468C1530.04 56.6555 1526.93 57.5805 1523.82 58.5217L1524.98 62.3502ZM1543.62 56.9212C1546.73 56.0487 1549.85 55.1925 1552.98 54.3526L1551.94 50.4897C1548.8 51.3333 1545.67 52.1931 1542.54 53.0694L1543.62 56.9212ZM1562.36 51.8816C1565.5 51.0742 1568.63 50.2832 1571.77 49.5085L1570.82 45.6248C1567.66 46.4029 1564.51 47.1973 1561.36 48.0081L1562.36 51.8816ZM1581.21 47.2335C1584.36 46.4916 1587.51 45.7661 1590.67 45.057L1589.79 41.1542C1586.62 41.8664 1583.46 42.595 1580.29 43.3401L1581.21 47.2335ZM1600.15 42.9791C1603.32 42.303 1606.48 41.6433 1609.65 41L1608.86 37.0799C1605.67 37.7259 1602.49 38.3884 1599.32 39.0674L1600.15 42.9791ZM1619.18 39.1201C1622.35 38.51 1625.53 37.9164 1628.72 37.3394L1628.01 33.4035C1624.81 33.983 1621.61 34.5792 1618.42 35.1918L1619.18 39.1201ZM1638.28 35.6582C1641.47 35.1145 1644.66 34.5873 1647.85 34.0767L1647.22 30.1268C1644.01 30.6396 1640.81 31.169 1637.61 31.7151L1638.28 35.6582ZM1657.45 32.595C1660.65 32.1178 1663.85 31.6572 1667.06 31.2133L1666.51 27.2511C1663.29 27.697 1660.07 28.1595 1656.86 28.6387L1657.45 32.595ZM1676.68 29.9317C1679.89 29.5213 1683.1 29.1275 1686.31 28.7504L1685.84 24.7777C1682.62 25.1564 1679.39 25.5519 1676.17 25.964L1676.68 29.9317ZM1695.96 27.6695C1697.57 27.4978 1699.17 27.3301 1700.78 27.1667L1700.38 23.1872C1698.76 23.3513 1697.15 23.5196 1695.53 23.6921L1695.96 27.6695ZM1700.78 27.1667L1705.92 26.6452L1705.52 22.6657L1700.38 23.1872L1700.78 27.1667ZM1716.2 25.6022L1726.47 24.5592L1726.07 20.5796L1715.79 21.6226L1716.2 25.6022ZM1736.74 23.5161L1747.02 22.4731L1746.61 18.4935L1736.34 19.5366L1736.74 23.5161ZM1757.29 21.4301L1767.57 20.387L1767.16 16.4075L1756.89 17.4505L1757.29 21.4301ZM1777.84 19.344L1788.12 18.301L1787.71 14.3214L1777.44 15.3644L1777.84 19.344ZM1798.39 17.2579L1808.66 16.2149L1808.26 12.2353L1797.99 13.2784L1798.39 17.2579ZM1818.94 15.1719L1829.21 14.1288L1828.81 10.1493L1818.53 11.1923L1818.94 15.1719ZM1839.49 13.0858L1849.76 12.0428L1849.36 8.06321L1839.08 9.10624L1839.49 13.0858ZM1860.03 10.9997L1870.31 9.9567L1869.9 5.97716L1859.63 7.0202L1860.03 10.9997ZM1880.58 8.91367L1890.86 7.87064L1890.45 3.8911L1880.18 4.93413L1880.58 8.91367ZM1901.13 6.8276L1911.41 5.78457L1911 1.80503L1900.73 2.84806L1901.13 6.8276ZM1921.68 4.74154L1926.82 4.22003L1926.41 0.240487L1921.28 0.761996L1921.68 4.74154Z" fill="#FFCB11"/>
</svg>
