<svg width="144" height="147" viewBox="0 0 144 147" fill="none" xmlns="http://www.w3.org/2000/svg">
<g clip-path="url(#clip0_81_90)">
<path d="M38.0607 125.899L40.4148 127.087C50.2248 133.025 61.211 135.797 72.1977 135.797C106.727 135.797 134.978 107.291 134.978 72.4511C134.978 55.8231 128.307 39.5907 116.536 27.7132C104.765 15.8357 89.0693 9.10547 72.1977 9.10547C37.6686 9.10547 9.41708 37.611 9.80971 72.8473C9.80971 84.7242 13.3411 96.2061 19.2265 106.103L20.7959 108.479L14.5184 131.838L38.0607 125.899Z" fill="#00E676"/>
<path d="M123.206 21.3791C109.865 7.52254 91.4237 0 72.5895 0C32.5676 0 0.392625 32.8605 0.784688 72.8473C0.784688 85.5165 4.31606 97.7902 10.2021 108.875L0 146.487L38.0604 136.589C48.6546 142.528 60.4254 145.3 72.1974 145.3C111.827 145.3 144.002 112.439 144.002 72.4523C144.002 53.0522 136.547 34.8401 123.207 21.3791H123.206ZM72.5895 133.026C61.9954 133.026 51.4012 130.256 42.3765 124.713L40.0224 123.525L17.2648 129.463L23.1502 106.897L21.5809 104.521C4.31606 76.4116 12.5561 39.1951 40.8071 21.7747C69.0581 4.35495 105.549 12.6692 122.814 41.1748C140.078 69.6803 131.838 106.5 103.588 123.92C94.5624 129.859 83.5763 133.026 72.5895 133.026V133.026ZM107.119 89.0809L102.802 87.1012C102.802 87.1012 96.525 84.3298 92.601 82.3501C92.2084 82.3501 91.8163 81.9539 91.4237 81.9539C90.2464 81.9539 89.4617 82.3501 88.677 82.7462C88.677 82.7462 88.2849 83.1418 82.7916 89.4765C82.3989 90.2682 81.6143 90.6644 80.8296 90.6644H80.4369C80.0449 90.6644 79.2602 90.2682 78.8676 89.8726L76.9056 89.0809C72.5895 87.1012 68.6661 84.7253 65.5267 81.5583C64.7421 80.7666 63.5648 79.9748 62.7801 79.1831C60.0334 76.4116 57.2867 73.244 55.3253 69.6808L54.9326 68.8891C54.5406 68.4929 54.5406 68.0973 54.1479 67.3056C54.1479 66.5138 54.1479 65.7221 54.5406 65.3259C54.5406 65.3259 56.1099 63.3462 57.2867 62.1589C58.0719 61.3665 58.464 60.1792 59.2487 59.3874C60.0334 58.1995 60.426 56.616 60.0334 55.4281C59.6413 53.4484 54.9326 42.7588 53.7559 40.3836C52.9706 39.1957 52.1865 38.8001 51.0092 38.4039H46.6931C45.9079 38.4039 45.1237 38.8001 44.3385 38.8001L43.9459 39.1956C43.1612 39.5918 42.3765 40.3836 41.5918 40.7792C40.8071 41.5715 40.4145 42.3627 39.6298 43.155C36.8831 46.7182 35.3138 51.0731 35.3138 55.4281C35.3138 58.5951 36.0984 61.7627 37.2757 64.5341L37.6684 65.7221C41.1998 73.244 45.9079 79.9748 52.1865 85.9133L53.7559 87.4968C54.9326 88.6847 56.1099 89.4765 56.8946 90.6638C65.1347 97.7908 74.5515 102.937 85.1456 105.709C86.3229 106.104 87.8923 106.104 89.0696 106.501H92.9931C94.9551 106.501 97.3091 105.709 98.8791 104.917C100.056 104.125 100.841 104.125 101.625 103.334L102.41 102.541C103.195 101.75 103.98 101.354 104.765 100.562C105.549 99.7704 106.334 98.9787 106.726 98.1864C107.511 96.6028 107.903 94.6232 108.296 92.6441V89.8726C108.296 89.8726 107.903 89.4765 107.119 89.0809Z" fill="white"/>
</g>
<defs>
<clipPath id="clip0_81_90">
<rect width="144" height="147" fill="white"/>
</clipPath>
</defs>
</svg>
