<svg width="515" height="159" viewBox="0 0 515 159" fill="none" xmlns="http://www.w3.org/2000/svg">
<g clip-path="url(#clip0_126_2)">
<path d="M240.36 63.7363V73.5785H214.591V156.439H202.249V73.5785H176.344V63.7363H240.36ZM321.468 83.5538V156.439H309.125V145.666C306.774 149.39 303.475 152.316 299.225 154.444C295.066 156.484 290.454 157.503 285.391 157.503C279.604 157.503 274.405 156.351 269.794 154.045C265.182 151.651 261.52 148.105 258.808 143.405C256.185 138.705 254.875 132.986 254.875 126.248V83.5538H267.081V124.652C267.081 131.834 268.934 137.375 272.642 141.277C276.349 145.089 281.412 146.996 287.832 146.996C294.432 146.996 299.632 145.001 303.429 141.011C307.227 137.021 309.125 131.213 309.125 123.588V83.5538H321.468ZM357.361 93.529V136.489C357.361 140.035 358.129 142.562 359.667 144.07C361.204 145.488 363.871 146.198 367.669 146.198H376.756V156.439H365.635C358.763 156.439 353.609 154.888 350.173 151.784C346.737 148.68 345.019 143.583 345.019 136.489V93.529H335.39V83.5538H345.019V65.1994H357.361V83.5538H376.756V93.529H357.361ZM424.125 157.636C417.163 157.636 410.834 156.085 405.137 152.981C399.531 149.878 395.101 145.488 391.846 139.814C388.681 134.05 387.099 127.4 387.099 119.864C387.099 112.415 388.727 105.854 391.982 100.179C395.327 94.4156 399.848 90.0265 405.544 87.0118C411.241 83.9084 417.615 82.3567 424.668 82.3567C431.72 82.3567 438.095 83.9084 443.791 87.0118C449.488 90.0265 453.963 94.3713 457.218 100.046C460.564 105.721 462.237 112.327 462.237 119.864C462.237 127.4 460.518 134.05 457.083 139.814C453.737 145.488 449.171 149.878 443.384 152.981C437.597 156.085 431.178 157.636 424.125 157.636ZM424.125 146.996C428.555 146.996 432.714 145.977 436.603 143.937C440.491 141.897 443.61 138.838 445.961 134.76C448.403 130.681 449.623 125.716 449.623 119.864C449.623 114.011 448.447 109.046 446.097 104.967C443.746 100.888 440.672 97.8737 436.874 95.923C433.077 93.8836 428.962 92.8639 424.532 92.8639C420.011 92.8639 415.852 93.8836 412.054 95.923C408.347 97.8737 405.363 100.888 403.103 104.967C400.842 109.046 399.712 114.011 399.712 119.864C399.712 125.804 400.797 130.814 402.967 134.893C405.228 138.971 408.211 142.03 411.919 144.07C415.625 146.02 419.694 146.996 424.125 146.996ZM490.805 95.391C492.975 91.2236 496.05 87.9872 500.028 85.6818C504.097 83.3764 509.025 82.2237 514.811 82.2237V94.726H511.556C497.722 94.726 490.805 102.086 490.805 116.804V156.439H478.463V83.5538H490.805V95.391Z" fill="white"/>
<path d="M37.7687 34.3326C37.7687 24.0123 29.3139 15.646 18.8844 15.646C8.45481 15.646 0 24.0123 0 34.3326V140.223C0 150.543 8.45481 158.91 18.8844 158.91C29.3139 158.91 37.7687 150.543 37.7687 140.223V34.3326Z" fill="#DE4878"/>
<path fill-rule="evenodd" clip-rule="evenodd" d="M108.91 17.5908C103.442 20.9507 99.8008 26.947 99.8008 33.7847V34.3992C99.8008 44.919 108.419 53.4471 119.05 53.4471C129.681 53.4471 138.3 44.919 138.3 34.3992V33.7847C138.3 30.5302 137.475 27.4662 136.021 24.7864C133.076 26.5956 129.602 27.6403 125.88 27.6403C118.538 27.6403 112.156 23.5729 108.91 17.5908Z" fill="#DE4878"/>
<path d="M74.7507 107.523C85.6148 107.523 94.4219 98.8078 94.4219 88.0575C94.4219 77.3071 85.6148 68.5923 74.7507 68.5923H38.5557C27.6916 68.5923 18.8845 77.3071 18.8845 88.0575C18.8845 98.8078 27.6916 107.523 38.5557 107.523H74.7507Z" fill="#DE4878"/>
<path d="M138.485 140.223C138.485 150.543 130.03 158.91 119.6 158.91C109.171 158.91 100.716 150.543 100.716 140.223V63.9199H138.485V140.223Z" fill="#DE4878"/>
<path d="M142.378 38.1368C142.275 38.5149 142.045 38.8045 141.686 39.0055C141.327 39.2066 140.953 39.2555 140.565 39.1525C140.176 39.0495 139.877 38.8221 139.668 38.4703C139.459 38.1187 139.405 37.7538 139.507 37.3756L144.482 19.0062L126.558 22.5315C125.205 22.7962 123.706 22.7105 122.061 22.2745C120.417 21.8385 119.075 21.1709 118.037 20.2721L103.317 7.53034C102.308 6.63945 101.912 5.79404 102.129 4.9941C102.345 4.19416 103.111 3.67234 104.427 3.42894L123.614 -0.322694C124.967 -0.587421 126.466 -0.501618 128.111 -0.0655982C129.755 0.370422 131.097 1.03785 132.135 1.93667L146.855 14.6784C147.738 15.4424 148.141 16.2039 148.063 16.9629C148.085 16.9999 148.085 17.062 148.061 17.1493L142.378 38.1368ZM127.237 25.7046L137.039 23.7673L135.374 29.9195C135.035 31.1703 133.348 31.8687 130.312 32.0146C127.276 32.1606 123.769 31.7064 119.793 30.652C115.816 29.5976 112.55 28.2562 109.995 26.6277C107.439 24.9993 106.331 23.5597 106.67 22.3088L108.336 16.1565L115.846 22.6841C116.884 23.5829 118.704 24.3772 121.305 25.0669C123.906 25.7566 125.884 25.9692 127.237 25.7046Z" fill="#3C3C3C"/>
<path d="M119.756 69.1328C130.272 69.1328 138.797 66.9203 138.797 64.1909C138.797 61.4616 130.272 59.249 119.756 59.249C109.241 59.249 100.716 61.4616 100.716 64.1909C100.716 66.9203 109.241 69.1328 119.756 69.1328Z" fill="url(#paint0_linear_126_2)"/>
</g>
<defs>
<linearGradient id="paint0_linear_126_2" x1="119.756" y1="59.2489" x2="119.756" y2="69.1327" gradientUnits="userSpaceOnUse">
<stop stop-color="#DE4878"/>
<stop offset="1" stop-color="#EB5786"/>
</linearGradient>
<clipPath id="clip0_126_2">
<rect width="515" height="159" fill="white"/>
</clipPath>
</defs>
</svg>
