<svg width="114" height="19" viewBox="0 0 114 19" fill="none" xmlns="http://www.w3.org/2000/svg">
<path d="M9.85698 0.483887L11.8554 6.63427H18.3223L13.0904 10.4354L15.0888 16.5858L9.85698 12.7847L4.62515 16.5858L6.62353 10.4354L1.3917 6.63427H7.85859L9.85698 0.483887Z" fill="#F2C94C"/>
<path d="M57.3287 0.483398L59.327 6.63378H65.7939L60.5621 10.4349L62.5605 16.5853L57.3287 12.7842L52.0968 16.5853L54.0952 10.4349L48.8634 6.63378H55.3303L57.3287 0.483398Z" fill="#F2C94C"/>
<path d="M33.5923 0.483398L35.5907 6.63378H42.0576L36.8258 10.4349L38.8242 16.5853L33.5923 12.7842L28.3605 16.5853L30.3589 10.4349L25.127 6.63378H31.5939L33.5923 0.483398Z" fill="#F2C94C"/>
<path d="M81.064 0.483398L83.0624 6.63378H89.5293L84.2975 10.4349L86.2958 16.5853L81.064 12.7842L75.8322 16.5853L77.8306 10.4349L72.5987 6.63378H79.0656L81.064 0.483398Z" fill="#F2C94C"/>
<path d="M104.8 0.483398L106.799 6.63378H113.266L108.034 10.4349L110.032 16.5853L104.8 12.7842L99.5685 16.5853L101.567 10.4349L96.3351 6.63378H102.802L104.8 0.483398Z" fill="#F2C94C"/>
</svg>
