<svg width="1920" height="622" viewBox="0 0 1920 622" fill="none" xmlns="http://www.w3.org/2000/svg">
<path fill-rule="evenodd" clip-rule="evenodd" d="M-1153 373.367L-980.417 414.806C-807.833 456.245 -462.667 539.122 -117.5 497.684C227.667 456.245 572.833 290.49 918 166.173C1263.17 41.8571 1608.33 -41.0205 1953.5 21.1377C2298.67 83.2959 2643.83 290.49 2816.42 394.087L2989 497.684V622H2816.42C2643.83 622 2298.67 622 1953.5 622C1608.33 622 1263.17 622 918 622C572.833 622 227.667 622 -117.5 622C-462.667 622 -807.833 622 -980.417 622H-1153V373.367Z" fill="#51BEF6"/>
</svg>
